<svg xmlns="http://www.w3.org/2000/svg" viewBox="0 0 739.82 354.28"><defs><style>.cls-1{fill:#fff;}.cls-1,.cls-2{stroke:#fff;stroke-miterlimit:10;}.cls-2{fill:none;stroke-width:20px;}</style></defs><g id="Lager_2" data-name="Lager 2"><g id="Layer_1" data-name="Layer 1"><path class="cls-1" d="M23.7,352.78v-10a14.74,14.74,0,0,0,3.6.4,6.53,6.53,0,0,0,4.9-1.65,7,7,0,0,0,1.6-5v-53.7h11v53.4q0,8.61-3.95,12.8t-12,4.2A27.46,27.46,0,0,1,23.7,352.78Z"/><path class="cls-1" d="M72.7,282.78h30v10h-19v18.5H98.8v10H83.7v21.5h19v10h-30Z"/><path class="cls-1" d="M131.4,349.23q-4.1-4.55-4.1-13.05v-4h10.4V337q0,6.81,5.7,6.8a5.34,5.34,0,0,0,4.25-1.65q1.46-1.65,1.45-5.35a14.79,14.79,0,0,0-2-7.75q-2-3.34-7.4-8-6.8-6-9.5-10.85a22.11,22.11,0,0,1-2.7-10.95q0-8.3,4.2-12.85t12.2-4.55q7.9,0,11.95,4.55t4.05,13.05v2.9H149.5v-3.6c0-2.4-.46-4.15-1.4-5.25a5.07,5.07,0,0,0-4.1-1.65q-5.49,0-5.5,6.7a13.26,13.26,0,0,0,2.05,7.1,39.19,39.19,0,0,0,7.45,8q6.9,6,9.5,10.9a24.12,24.12,0,0,1,2.6,11.5q0,8.61-4.25,13.2t-12.35,4.6Q135.51,353.78,131.4,349.23Z"/><path class="cls-1" d="M188.6,349.23q-4.09-4.55-4.1-13.05v-4h10.4V337q0,6.81,5.7,6.8a5.34,5.34,0,0,0,4.25-1.65q1.46-1.65,1.45-5.35a14.79,14.79,0,0,0-2-7.75q-2-3.34-7.4-8-6.79-6-9.5-10.85a22.11,22.11,0,0,1-2.7-10.95q0-8.3,4.2-12.85t12.2-4.55q7.91,0,12,4.55t4,13.05v2.9H206.7v-3.6c0-2.4-.46-4.15-1.4-5.25a5.07,5.07,0,0,0-4.1-1.65q-5.49,0-5.5,6.7a13.26,13.26,0,0,0,2.05,7.1,39.19,39.19,0,0,0,7.45,8q6.9,6,9.5,10.9a24.12,24.12,0,0,1,2.6,11.5q0,8.61-4.25,13.2t-12.35,4.6Q192.71,353.78,188.6,349.23Z"/><path class="cls-1" d="M283.1,349.18q-4.31-4.59-4.3-13v-36.8q0-8.4,4.3-13t12.4-4.6q8.1,0,12.4,4.6t4.3,13v36.8q0,8.4-4.3,13t-12.4,4.6Q287.4,353.78,283.1,349.18Zm18.1-12.3v-38.2q0-6.9-5.7-6.9t-5.7,6.9v38.2q0,6.9,5.7,6.9T301.2,336.88Z"/><path class="cls-1" d="M339.6,282.78h29.1v10H350.6v19.5h14.2v10H350.6v30.5h-11Z"/><path class="cls-1" d="M430,282.78h13.8l10.7,41.9h.2v-41.9h9.8v70H453.2L440,301.68h-.2v51.1H430Z"/><path class="cls-1" d="M496.2,349.18q-4.31-4.59-4.3-13v-36.8q0-8.4,4.3-13t12.4-4.6q8.1,0,12.4,4.6t4.3,13v36.8q0,8.4-4.3,13t-12.4,4.6Q500.5,353.78,496.2,349.18Zm18.1-12.3v-38.2q0-6.9-5.7-6.9t-5.7,6.9v38.2q0,6.9,5.7,6.9T514.3,336.88Z"/><path class="cls-1" d="M552.7,282.78H569q8.49,0,12.4,4t3.9,12.15v4.3q0,10.9-7.2,13.8v.2a8.62,8.62,0,0,1,5.65,4.9,24.69,24.69,0,0,1,1.65,9.9v12.3a45.16,45.16,0,0,0,.2,4.85,11.83,11.83,0,0,0,1,3.65H575.4a15.75,15.75,0,0,1-.8-3.2,46.53,46.53,0,0,1-.2-5.4v-12.8q0-4.8-1.55-6.7c-1-1.26-2.82-1.9-5.35-1.9h-3.8v30h-11Zm15,30a6.58,6.58,0,0,0,4.95-1.7q1.65-1.69,1.65-5.7V300q0-3.8-1.35-5.5a5.11,5.11,0,0,0-4.25-1.7h-5v20Z"/><path class="cls-1" d="M621.4,292.78H609.9v-10h34v10H632.4v60h-11Z"/><path class="cls-1" d="M669.2,282.78h11v28.5H692v-28.5h11v70H692v-31.5H680.2v31.5h-11Z"/><polyline class="cls-2" points="732.26 269.74 626.9 147.89 574.3 181.66 491.94 61.32 445.16 89.85 372.09 14.28 246.36 140.74 215.72 104.5 127.71 198.31 100.2 180.84 6.78 267.11"/><polyline class="cls-2" points="372.09 14.28 357.46 109.7 384.18 155.97 309.53 217.66 246.36 140.74"/><line class="cls-2" x1="339.17" y1="193.16" x2="377.89" y2="237.7"/><line class="cls-2" x1="521.3" y1="225.03" x2="574.3" y2="181.66"/></g></g></svg>